Coordinates
version=1
nRows=33
nColumns=38
inDegrees=no

Units are S.I. units (second, meters, Newtons, ...)
If the header above contains a line with 'inDegrees', this indicates whether rotational values are in degrees (yes) or radians (no).

endheader
time	pelvis_tilt	pelvis_list	pelvis_rotation	pelvis_tx	pelvis_ty	pelvis_tz	hip_flexion_r	hip_adduction_r	hip_rotation_r	knee_angle_r	ankle_angle_r	subtalar_angle_r	mtp_angle_r	hip_flexion_l	hip_adduction_l	hip_rotation_l	knee_angle_l	ankle_angle_l	subtalar_angle_l	mtp_angle_l	lumbar_extension	lumbar_bending	lumbar_rotation	arm_flex_r	arm_add_r	arm_rot_r	elbow_flex_r	pro_sup_r	wrist_flex_r	wrist_dev_r	arm_flex_l	arm_add_l	arm_rot_l	elbow_flex_l	pro_sup_l	wrist_flex_l	wrist_dev_l
0.03	-0.160286	0.0610423	0.0351006	0.797212	0.935406	-0.31761	0.339701	-0.20592	-0.154513	-2.31644	-0.0146782	0.1	-0.00419479	0.679691	0.114863	-0.190369	-0.835078	0.58221	0.1	-0.00818598	-0.171642	-0.111727	-0.00899579	-0.535042	-0.53195	-0.13546	1.762	1.69477	0.0133049	-0.0278198	-0.470183	-0.479535	-0.248257	1.84963	2.10425	0.00417504	-0.00403576
0.04	-0.151187	0.0628117	0.0378719	0.793609	0.934168	-0.317013	0.441539	-0.199698	-0.131281	-2.37754	0.0151316	0.1	-0.00419479	0.627065	0.113584	-0.182238	-0.864458	0.674978	0.1	-0.00818598	-0.192417	-0.109158	-0.0300904	-0.569828	-0.50923	-0.147853	1.70955	1.67254	0.0133049	-0.0278198	-0.401376	-0.503033	-0.237361	1.82939	2.12303	0.00417504	-0.00403576
0.05	-0.144834	0.0597387	0.0412586	0.790595	0.933063	-0.316453	0.539804	-0.190431	-0.114966	-2.41592	0.0433273	0.1	-0.00419479	0.572792	0.10613	-0.176088	-0.882247	0.751148	0.1	-0.00818598	-0.207704	-0.101356	-0.050745	-0.60622	-0.488531	-0.160377	1.66886	1.65455	0.0133049	-0.0278198	-0.336717	-0.523665	-0.226485	1.81891	2.13584	0.00417504	-0.00403576
0.06	-0.141195	0.0519464	0.0453021	0.788242	0.932323	-0.315856	0.634341	-0.178323	-0.105496	-2.43171	0.0699836	0.1	-0.00419479	0.516832	0.0926754	-0.171942	-0.888376	0.810268	0.1	-0.00818598	-0.217545	-0.0884675	-0.0709983	-0.644164	-0.469819	-0.173003	1.63977	1.64076	0.0133049	-0.0278198	-0.276195	-0.541475	-0.21554	1.81809	2.14266	0.00417504	-0.00403576
0.07	-0.140166	0.0398326	0.0500717	0.786611	0.932111	-0.315266	0.7247	-0.163926	-0.102587	-2.42534	0.0952935	0.1	-0.00419479	0.459071	0.0737444	-0.169846	-0.882697	0.851065	0.1	-0.00818598	-0.222086	-0.0709151	-0.0909211	-0.683484	-0.452991	-0.185641	1.62173	1.631	0.0133049	-0.0278198	-0.219775	-0.556568	-0.204291	1.82663	2.14345	0.00417504	-0.00403576
0.08	-0.141565	0.0240984	0.0555843	0.785729	0.932527	-0.314724	0.810081	-0.148077	-0.105617	-2.3976	0.119587	0.1	-0.00419479	0.399356	0.0502251	-0.169971	-0.865104	0.871544	0.1	-0.00818598	-0.221644	-0.0494563	-0.110531	-0.723837	-0.437863	-0.198117	1.61373	1.62483	0.0133049	-0.0278198	-0.1674	-0.569098	-0.192358	1.844	2.13832	0.00417504	-0.00403576
0.09	-0.14511	0.00566651	0.0616902	0.785585	0.933629	-0.314215	0.889416	-0.131674	-0.113582	-2.34968	0.143292	0.1	-0.00419479	0.337591	0.0232974	-0.172605	-0.835726	0.869355	0.1	-0.00818598	-0.216704	-0.0251327	-0.129681	-0.764709	-0.424187	-0.210182	1.61431	1.62136	0.0133049	-0.0278198	-0.119002	-0.579253	-0.179288	1.86941	2.12771	0.00417504	-0.00403576
0.1	-0.150499	-0.0144507	0.0679881	0.786136	0.935427	-0.313707	0.961504	-0.115399	-0.12516	-2.28302	0.166867	0.1	-0.00419479	0.273892	-0.00571093	-0.17811	-0.795173	0.842409	0.1	-0.00818598	-0.207908	0.000846969	-0.147994	-0.805426	-0.411709	-0.22154	1.62174	1.61937	0.0133049	-0.0278198	-0.0745464	-0.58723	-0.164678	1.90193	2.1126	0.00417504	-0.00403576
0.11	-0.157408	-0.035206	0.0738391	0.787307	0.937869	-0.313168	1.02517	-0.0995641	-0.138882	-2.1992	0.190771	0.1	-0.00419479	0.208745	-0.0355363	-0.18696	-0.744829	0.789691	0.1	-0.00818598	-0.195992	0.0272589	-0.164881	-0.845191	-0.400227	-0.231889	1.63417	1.61753	0.0133049	-0.0278198	-0.0340711	-0.593218	-0.148312	1.94051	2.09458	0.00417504	-0.00403576
0.12	-0.165527	-0.0556011	0.0784779	0.789	0.940842	-0.312559	1.07937	-0.0841585	-0.153332	-2.09978	0.215454	0.1	-0.00419479	0.143109	-0.0650318	-0.199538	-0.687088	0.711905	0.1	-0.00818598	-0.181759	0.052934	-0.179674	-0.883119	-0.389642	-0.240968	1.64987	1.61466	0.0133049	-0.0278198	0.00228208	-0.597391	-0.13025	1.98395	2.07575	0.00417504	-0.00403576
0.13	-0.174547	-0.0746897	0.0812113	0.791104	0.944164	-0.311845	1.12323	-0.0690594	-0.167354	-1.98627	0.241374	0.1	-0.00419479	0.0784369	-0.0931146	-0.215728	-0.625485	0.61186	0.1	-0.00818598	-0.16606	0.076797	-0.191812	-0.918283	-0.379961	-0.248592	1.66734	1.61008	0.0133049	-0.0278198	0.034285	-0.599914	-0.110818	2.03093	2.05843	0.00417504	-0.00403576
0.14	-0.184121	-0.0915612	0.0816398	0.793501	0.947596	-0.311005	1.15605	-0.0542991	-0.180216	-1.86018	0.269011	0.1	-0.00419479	0.0165927	-0.118665	-0.234454	-0.564638	0.494446	0.1	-0.00818598	-0.14978	0.0978796	-0.201014	-0.949777	-0.371258	-0.254681	1.68537	1.60374	0.0133049	-0.0278198	0.061675	-0.600945	-0.090512	2.07984	2.04481	0.00417504	-0.00403576
0.15	-0.193838	-0.105344	0.0798198	0.796039	0.950893	-0.310055	1.17731	-0.0402577	-0.19171	-1.72316	0.298834	0.1	-0.00419479	-0.0403288	-0.140504	-0.253503	-0.509985	0.366371	0.1	-0.00818598	-0.133832	0.115337	-0.207377	-0.976781	-0.363614	-0.259265	1.70304	1.59625	0.0133049	-0.0278198	0.0842175	-0.600638	-0.0698683	2.12883	2.03652	0.00417504	-0.00403576
0.16	-0.2032	-0.115244	0.0763015	0.798546	0.95385	-0.309075	1.18668	-0.027705	-0.202154	-1.57724	0.331156	0.1	-0.00419479	-0.0902688	-0.157447	-0.269657	-0.467262	0.23552	0.1	-0.00818598	-0.119121	0.12848	-0.211362	-0.99862	-0.357061	-0.26247	1.71969	1.58859	0.0133049	-0.0278198	0.101741	-0.599142	-0.0493583	2.17582	2.03448	0.00417504	-0.00403576
0.17	-0.211624	-0.120628	0.0720152	0.800895	0.956319	-0.308193	1.18415	-0.0176636	-0.21229	-1.42506	0.365867	0.1	-0.00419479	-0.131495	-0.168451	-0.279254	-0.441826	0.110137	0.1	-0.00818598	-0.106501	0.13683	-0.213651	-1.01481	-0.351568	-0.264482	1.73488	1.58189	0.0133049	-0.0278198	0.114124	-0.596607	-0.0293483	2.21857	2.03879	0.00417504	-0.00403576
0.18	-0.218477	-0.121139	0.0680356	0.803035	0.958212	-0.30756	1.17008	-0.011146	-0.223092	-1.27008	0.402108	0.1	-0.00419479	-0.162857	-0.17283	-0.279073	-0.437981	-0.00214352	0.1	-0.00818598	-0.0967079	0.140193	-0.214934	-1.0251	-0.347075	-0.265501	1.74832	1.57705	0.0133049	-0.0278198	0.121253	-0.593189	-0.0101098	2.25489	2.04887	0.00417504	-0.00403576
0.19	-0.223157	-0.116832	0.0652949	0.804985	0.959483	-0.307304	1.14531	-0.00885898	-0.235544	-1.11662	0.438101	0.1	-0.00419479	-0.18394	-0.170486	-0.267323	-0.458451	-0.0952873	0.1	-0.00818598	-0.0902836	0.138734	-0.215675	-1.02948	-0.34356	-0.265715	1.7599	1.57451	0.0133049	-0.0278198	0.122972	-0.589072	0.00815004	2.28286	2.06356	0.00417504	-0.00403576
0.2	-0.225152	-0.108234	0.0643158	0.806816	0.960098	-0.307482	1.11125	-0.0109344	-0.250382	-0.96975	0.471162	0.1	-0.00419479	-0.195071	-0.162105	-0.244356	-0.504087	-0.165756	0.1	-0.00818598	-0.0874884	0.133054	-0.215917	-1.0282	-0.341135	-0.265287	1.76967	1.57411	0.0133049	-0.0278198	0.119077	-0.584465	0.0252579	2.301	2.08131	0.00417504	-0.00403576
0.21	-0.224203	-0.0963873	0.0650513	0.808616	0.960024	-0.308042	1.06984	-0.0167548	-0.267815	-0.83498	0.49797	0.1	-0.00419479	-0.197192	-0.149194	-0.212789	-0.573857	-0.213019	0.1	-0.00818598	-0.0882605	0.124191	-0.215201	-1.02174	-0.340103	-0.264351	1.77786	1.57519	0.0133049	-0.0278198	0.109354	-0.579584	0.0410506	2.30845	2.10029	0.00417504	-0.00403576
0.22	-0.220339	-0.0827738	0.0668482	0.810466	0.95919	-0.308811	1.02349	-0.024917	-0.287292	-0.717715	0.515094	0.1	-0.00419479	-0.191594	-0.134004	-0.17706	-0.665127	-0.239348	0.1	-0.00818598	-0.0921822	0.113565	-0.212585	-1.01071	-0.340984	-0.26301	1.7848	1.57673	0.0133049	-0.0278198	0.0936741	-0.574611	0.0553545	2.30496	2.11859	0.00417504	-0.00403576
0.23	-0.213935	-0.0691639	0.068565	0.812394	0.957527	-0.309553	0.974878	-0.0334016	-0.307471	-0.622697	0.519747	0.1	-0.00419479	-0.179613	-0.11925	-0.142384	-0.774113	-0.248942	0.1	-0.00818598	-0.0985485	0.102821	-0.206797	-0.995691	-0.344462	-0.261294	1.7908	1.57759	0.0133049	-0.0278198	0.0720927	-0.569662	0.067971	2.29094	2.13449	0.00417504	-0.00403576
0.24	-0.205621	-0.0573637	0.0688025	0.814378	0.954961	-0.310024	0.926711	-0.0398644	-0.326321	-0.553468	0.510587	0.1	-0.00419479	-0.162334	-0.10773	-0.113594	-0.896427	-0.246618	0.1	-0.00818598	-0.106487	0.0936509	-0.196479	-0.977103	-0.351282	-0.259113	1.79608	1.5768	0.0133049	-0.0278198	0.0449376	-0.564755	0.0786723	2.26731	2.14664	0.00417504	-0.00403576
0.25	-0.196176	-0.0489943	0.0662124	0.816347	0.951412	-0.310032	0.881453	-0.0420743	-0.341568	-0.512061	0.488536	0.1	-0.00419479	-0.140403	-0.101858	-0.0940754	-1.02758	-0.236637	0.1	-0.00818598	-0.115151	0.0875527	-0.18047	-0.954996	-0.362113	-0.256195	1.80056	1.57376	0.0133049	-0.0278198	0.0128402	-0.559795	0.0872003	2.23547	2.15432	0.00417504	-0.00403576
0.26	-0.186396	-0.0452754	0.0597901	0.818189	0.946849	-0.309474	0.841008	-0.0383284	-0.351201	-0.498854	0.457319	0.1	-0.00419479	-0.113928	-0.103254	-0.0851627	-1.16337	-0.222021	0.1	-0.00818598	-0.123899	0.0856334	-0.158077	-0.928977	-0.377414	-0.252049	1.80387	1.56838	0.0133049	-0.0278198	-0.0232982	-0.554568	0.0932601	2.19711	2.15762	0.00417504	-0.00403576
0.27	-0.176968	-0.0468656	0.0490954	0.819763	0.94134	-0.308344	0.806423	-0.0277391	-0.353837	-0.51247	0.423401	0.1	-0.00419479	-0.0824803	-0.112477	-0.0861004	-1.30008	-0.204485	0.1	-0.00818598	-0.132402	0.0884563	-0.129278	-0.898216	-0.397328	-0.245977	1.80532	1.56111	0.0133049	-0.0278198	-0.0624024	-0.548746	0.0965113	2.15409	2.15756	0.00417504	-0.00403576
0.28	-0.168386	-0.0537522	0.0343812	0.820937	0.9352	-0.306748	0.777611	-0.0103806	-0.348965	-0.549651	0.395014	0.1	-0.00419479	-0.0451887	-0.128893	-0.0943915	-1.43454	-0.184766	0.1	-0.00818598	-0.140629	0.0959573	-0.0948324	-0.861584	-0.421614	-0.237129	1.8041	1.55278	0.0133049	-0.0278198	-0.103363	-0.541926	0.0965638	2.10831	2.15603	0.00417504	-0.00403576
0.29	-0.160906	-0.0652281	0.0166212	0.821614	0.929108	-0.30486	0.753189	0.0127057	-0.336981	-0.60514	0.380264	0.1	-0.00419479	-0.00092374	-0.150675	-0.106403	-1.56402	-0.163047	0.1	-0.00818598	-0.148732	0.107412	-0.0562999	-0.817919	-0.449637	-0.22463	1.79954	1.54439	0.0133049	-0.0278198	-0.145188	-0.533704	0.0929959	2.06154	2.15558	0.00417504	-0.00403576
0.3	-0.154612	-0.0799432	-0.00256341	0.821714	0.923799	-0.302858	0.730556	0.0396266	-0.318985	-0.67183	0.384894	0.1	-0.00419479	0.051457	-0.174972	-0.118141	-1.6861	-0.139213	0.1	-0.00818598	-0.156867	0.12147	-0.015944	-0.766361	-0.4804	-0.207761	1.79134	1.53674	0.0133049	-0.0278198	-0.187127	-0.52378	0.0854099	2.01541	2.15904	0.00417504	-0.00403576
0.31	-0.1495	-0.0959996	-0.0210879	0.82118	0.919538	-0.300915	0.706342	0.0677883	-0.2967	-0.741493	0.410775	0.1	-0.00419479	0.112848	-0.198243	-0.126022	-1.79849	-0.112986	0.1	-0.00818598	-0.165013	0.136276	0.0235078	-0.706707	-0.512612	-0.186181	1.7799	1.53031	0.0133049	-0.0278198	-0.228726	-0.512072	0.0735325	1.97134	2.16909	0.00417504	-0.00403576
0.32	-0.145573	-0.111151	-0.0367125	0.819999	0.916165	-0.299262	0.677108	0.0941574	-0.272327	-0.805932	0.455658	0.1	-0.00419479	0.18364	-0.21673	-0.127555	-1.89897	-0.0840492	0.1	-0.00818598	-0.172854	0.149688	0.0592672	-0.639664	-0.544797	-0.160144	1.76641	1.52514	0.0133049	-0.0278198	-0.269793	-0.498799	0.0573471	1.93053	2.1876	0.00417504	-0.00403576
0.33	-0.142846	-0.123098	-0.0474602	0.818267	0.913519	-0.298162	0.640068	0.115702	-0.248259	-0.85813	0.514058	0.1	-0.00419479	0.263532	-0.227067	-0.121797	-1.98543	-0.0521724	0.1	-0.00818598	-0.179764	0.159564	0.0890115	-0.566934	-0.57545	-0.130631	1.75279	1.52102	0.0133049	-0.0278198	-0.3103	-0.484516	0.0372165	1.89397	2.215	0.00417504	-0.00403576
0.34	-0.141397	-0.129891	-0.0520607	0.816197	0.911581	-0.297704	0.593572	0.129899	-0.226757	-0.893038	0.578667	0.1	-0.00419479	0.351409	-0.226895	-0.109503	-2.05591	-0.0173371	0.1	-0.00818598	-0.184926	0.164052	0.111386	-0.491066	-0.603223	-0.0992859	1.74149	1.5176	0.0133049	-0.0278198	-0.350306	-0.47006	0.0139292	1.86246	2.24974	0.00417504	-0.00403576
0.35	-0.141354	-0.13025	-0.05027	0.814065	0.910381	-0.297788	0.537231	0.135181	-0.209642	-0.907803	0.641571	0.1	-0.00419479	0.445353	-0.215334	-0.0928824	-2.10883	0.0201743	0.1	-0.00818598	-0.187517	0.161844	0.126323	-0.415083	-0.627146	-0.0681578	1.73501	1.51462	0.0133049	-0.0278198	-0.389936	-0.456407	-0.0113943	1.83665	2.28804	0.00417504	-0.00403576
